<mxfile host="65bd71144e">
    <diagram id="g02yZPYnZc3DpvQOZKdE" name="Page-1">
        <mxGraphModel dx="1114" dy="1234" grid="1" gridSize="10" guides="1" tooltips="1" connect="1" arrows="1" fold="1" page="1" pageScale="1" pageWidth="3000" pageHeight="3000" math="0" shadow="0">
            <root>
                <mxCell id="0"/>
                <mxCell id="1" parent="0"/>
                <mxCell id="10" style="edgeStyle=none;html=1;exitX=0.75;exitY=0;exitDx=0;exitDy=0;entryX=0.5;entryY=1;entryDx=0;entryDy=0;" edge="1" parent="1" source="2" target="6">
                    <mxGeometry relative="1" as="geometry"/>
                </mxCell>
                <mxCell id="2" value="parsing" style="rounded=0;whiteSpace=wrap;html=1;fontStyle=0" vertex="1" parent="1">
                    <mxGeometry x="742" y="321" width="120" height="60" as="geometry"/>
                </mxCell>
                <mxCell id="4" value="build cmd" style="rounded=0;whiteSpace=wrap;html=1;" vertex="1" parent="1">
                    <mxGeometry x="952" y="321" width="120" height="60" as="geometry"/>
                </mxCell>
                <mxCell id="6" value="open&lt;br&gt;fd files" style="whiteSpace=wrap;html=1;aspect=fixed;" vertex="1" parent="1">
                    <mxGeometry x="802" y="231" width="60" height="60" as="geometry"/>
                </mxCell>
                <mxCell id="8" value="" style="endArrow=classic;html=1;exitX=1;exitY=0.5;exitDx=0;exitDy=0;entryX=0.5;entryY=0;entryDx=0;entryDy=0;" edge="1" parent="1" source="6" target="4">
                    <mxGeometry width="50" height="50" relative="1" as="geometry">
                        <mxPoint x="892" y="341" as="sourcePoint"/>
                        <mxPoint x="942" y="291" as="targetPoint"/>
                    </mxGeometry>
                </mxCell>
                <mxCell id="13" value="run cmd" style="whiteSpace=wrap;html=1;aspect=fixed;" vertex="1" parent="1">
                    <mxGeometry x="802" y="431" width="60" height="60" as="geometry"/>
                </mxCell>
                <mxCell id="16" value="change byte flag" style="swimlane;fontStyle=0;childLayout=stackLayout;horizontal=1;startSize=30;horizontalStack=0;resizeParent=1;resizeParentMax=0;resizeLast=0;collapsible=1;marginBottom=0;whiteSpace=wrap;html=1;" vertex="1" parent="1">
                    <mxGeometry x="902" y="431" width="160" height="90" as="geometry"/>
                </mxCell>
                <mxCell id="17" value="set pipe" style="text;strokeColor=none;fillColor=none;align=left;verticalAlign=middle;spacingLeft=4;spacingRight=4;overflow=hidden;points=[[0,0.5],[1,0.5]];portConstraint=eastwest;rotatable=0;whiteSpace=wrap;html=1;" vertex="1" parent="16">
                    <mxGeometry y="30" width="160" height="30" as="geometry"/>
                </mxCell>
                <mxCell id="19" value="set redirection in and out" style="text;strokeColor=none;fillColor=none;align=left;verticalAlign=middle;spacingLeft=4;spacingRight=4;overflow=hidden;points=[[0,0.5],[1,0.5]];portConstraint=eastwest;rotatable=0;whiteSpace=wrap;html=1;" vertex="1" parent="16">
                    <mxGeometry y="60" width="160" height="30" as="geometry"/>
                </mxCell>
                <mxCell id="60" style="edgeStyle=none;html=1;exitX=0.5;exitY=1;exitDx=0;exitDy=0;entryX=0.5;entryY=0;entryDx=0;entryDy=0;fontSize=9;fontColor=#DDDDDD;" edge="1" parent="1" source="20" target="22">
                    <mxGeometry relative="1" as="geometry"/>
                </mxCell>
                <mxCell id="20" value="while cmd in list" style="ellipse;whiteSpace=wrap;html=1;aspect=fixed;" vertex="1" parent="1">
                    <mxGeometry x="857" y="571" width="90" height="90" as="geometry"/>
                </mxCell>
                <mxCell id="62" style="edgeStyle=none;html=1;exitX=0.5;exitY=1;exitDx=0;exitDy=0;entryX=1;entryY=0.5;entryDx=0;entryDy=0;fontSize=9;fontColor=#DDDDDD;" edge="1" parent="1" source="22" target="25">
                    <mxGeometry relative="1" as="geometry"/>
                </mxCell>
                <mxCell id="22" value="close old fd" style="rounded=0;whiteSpace=wrap;html=1;" vertex="1" parent="1">
                    <mxGeometry x="842" y="681" width="120" height="60" as="geometry"/>
                </mxCell>
                <mxCell id="24" value="" style="endArrow=classic;html=1;exitX=0.001;exitY=1.038;exitDx=0;exitDy=0;exitPerimeter=0;entryX=0.5;entryY=0;entryDx=0;entryDy=0;" edge="1" parent="1" source="19" target="20">
                    <mxGeometry width="50" height="50" relative="1" as="geometry">
                        <mxPoint x="1072" y="571" as="sourcePoint"/>
                        <mxPoint x="1014" y="571" as="targetPoint"/>
                    </mxGeometry>
                </mxCell>
                <mxCell id="25" value="if build in" style="triangle;whiteSpace=wrap;html=1;rotation=-90;" vertex="1" parent="1">
                    <mxGeometry x="867" y="751" width="70" height="80" as="geometry"/>
                </mxCell>
                <mxCell id="27" value="&lt;div style=&quot;background-color: rgb(30, 30, 30); font-family: Menlo, Monaco, &amp;quot;Courier New&amp;quot;, monospace; line-height: 18px;&quot;&gt;&lt;font style=&quot;font-size: 9px;&quot; color=&quot;#dcdcdc&quot;&gt;ft_execution_builtin&lt;/font&gt;&lt;/div&gt;" style="rounded=0;whiteSpace=wrap;html=1;" vertex="1" parent="1">
                    <mxGeometry x="972" y="861" width="120" height="60" as="geometry"/>
                </mxCell>
                <mxCell id="31" value="" style="endArrow=classic;html=1;exitX=0;exitY=1.003;exitDx=0;exitDy=0;entryX=0;entryY=0;entryDx=0;entryDy=0;exitPerimeter=0;" edge="1" parent="1" source="25" target="27">
                    <mxGeometry relative="1" as="geometry">
                        <mxPoint x="952" y="741" as="sourcePoint"/>
                        <mxPoint x="1052" y="741" as="targetPoint"/>
                    </mxGeometry>
                </mxCell>
                <mxCell id="32" value="true" style="edgeLabel;resizable=0;html=1;align=center;verticalAlign=middle;" connectable="0" vertex="1" parent="31">
                    <mxGeometry relative="1" as="geometry"/>
                </mxCell>
                <mxCell id="33" value="" style="endArrow=classic;html=1;fontSize=9;fontColor=#DCDCDC;exitX=0.005;exitY=0.007;exitDx=0;exitDy=0;exitPerimeter=0;entryX=1;entryY=0;entryDx=0;entryDy=0;" edge="1" parent="1" source="25" target="39">
                    <mxGeometry relative="1" as="geometry">
                        <mxPoint x="932" y="831" as="sourcePoint"/>
                        <mxPoint x="822" y="861" as="targetPoint"/>
                    </mxGeometry>
                </mxCell>
                <mxCell id="34" value="flase" style="edgeLabel;resizable=0;html=1;align=center;verticalAlign=middle;fontSize=9;fontColor=#DCDCDC;" connectable="0" vertex="1" parent="33">
                    <mxGeometry relative="1" as="geometry"/>
                </mxCell>
                <mxCell id="36" value="" style="endArrow=classic;html=1;fontSize=9;fontColor=#DCDCDC;exitX=1;exitY=0.5;exitDx=0;exitDy=0;" edge="1" parent="1" source="13">
                    <mxGeometry width="50" height="50" relative="1" as="geometry">
                        <mxPoint x="882" y="511" as="sourcePoint"/>
                        <mxPoint x="902" y="461" as="targetPoint"/>
                    </mxGeometry>
                </mxCell>
                <mxCell id="37" value="" style="endArrow=classic;html=1;fontSize=9;fontColor=#DCDCDC;exitX=0.75;exitY=1;exitDx=0;exitDy=0;entryX=0.5;entryY=0;entryDx=0;entryDy=0;" edge="1" parent="1" source="2" target="13">
                    <mxGeometry width="50" height="50" relative="1" as="geometry">
                        <mxPoint x="792" y="441" as="sourcePoint"/>
                        <mxPoint x="842" y="391" as="targetPoint"/>
                    </mxGeometry>
                </mxCell>
                <mxCell id="38" value="" style="endArrow=classic;startArrow=classic;html=1;fontSize=9;fontColor=#DCDCDC;exitX=1;exitY=0.5;exitDx=0;exitDy=0;entryX=0;entryY=0.5;entryDx=0;entryDy=0;" edge="1" parent="1" source="2" target="4">
                    <mxGeometry width="50" height="50" relative="1" as="geometry">
                        <mxPoint x="882" y="411" as="sourcePoint"/>
                        <mxPoint x="932" y="361" as="targetPoint"/>
                    </mxGeometry>
                </mxCell>
                <mxCell id="39" value="&lt;div style=&quot;background-color: rgb(30, 30, 30); font-family: Menlo, Monaco, &amp;quot;Courier New&amp;quot;, monospace; font-size: 12px; line-height: 80%;&quot;&gt;&lt;font color=&quot;#dddddd&quot;&gt;ft_execution&lt;/font&gt;&lt;/div&gt;" style="rounded=0;whiteSpace=wrap;html=1;fontSize=9;fontColor=#DCDCDC;" vertex="1" parent="1">
                    <mxGeometry x="712" y="861" width="120" height="60" as="geometry"/>
                </mxCell>
                <mxCell id="40" value="find path" style="rounded=0;whiteSpace=wrap;html=1;fontSize=9;fontColor=#DDDDDD;" vertex="1" parent="1">
                    <mxGeometry x="707" y="961" width="70" height="40" as="geometry"/>
                </mxCell>
                <mxCell id="41" value="" style="endArrow=classic;html=1;fontSize=9;fontColor=#DDDDDD;exitX=0.25;exitY=1;exitDx=0;exitDy=0;entryX=0.5;entryY=0;entryDx=0;entryDy=0;" edge="1" parent="1" source="39" target="40">
                    <mxGeometry width="50" height="50" relative="1" as="geometry">
                        <mxPoint x="662" y="991" as="sourcePoint"/>
                        <mxPoint x="712" y="941" as="targetPoint"/>
                    </mxGeometry>
                </mxCell>
                <mxCell id="42" value="" style="curved=1;endArrow=classic;html=1;fontSize=9;fontColor=#DDDDDD;exitX=0;exitY=0;exitDx=0;exitDy=0;entryX=0;entryY=0.5;entryDx=0;entryDy=0;" edge="1" parent="1" source="40" target="20">
                    <mxGeometry width="50" height="50" relative="1" as="geometry">
                        <mxPoint x="752" y="861" as="sourcePoint"/>
                        <mxPoint x="802" y="811" as="targetPoint"/>
                        <Array as="points">
                            <mxPoint x="692" y="871"/>
                            <mxPoint x="692" y="801"/>
                            <mxPoint x="822" y="771"/>
                            <mxPoint x="812" y="681"/>
                            <mxPoint x="822" y="611"/>
                        </Array>
                    </mxGeometry>
                </mxCell>
                <mxCell id="43" value="fail" style="edgeLabel;html=1;align=center;verticalAlign=middle;resizable=0;points=[];fontSize=9;fontColor=#DDDDDD;" vertex="1" connectable="0" parent="42">
                    <mxGeometry x="-0.158" y="-6" relative="1" as="geometry">
                        <mxPoint x="-33" y="144" as="offset"/>
                    </mxGeometry>
                </mxCell>
                <mxCell id="45" value="set_redir" style="rounded=0;whiteSpace=wrap;html=1;fontSize=9;fontColor=#DDDDDD;" vertex="1" parent="1">
                    <mxGeometry x="704.5" y="1031" width="75" height="40" as="geometry"/>
                </mxCell>
                <mxCell id="46" value="" style="endArrow=classic;html=1;fontSize=9;fontColor=#DDDDDD;exitX=0.5;exitY=1;exitDx=0;exitDy=0;entryX=0.5;entryY=0;entryDx=0;entryDy=0;" edge="1" parent="1" source="40" target="45">
                    <mxGeometry width="50" height="50" relative="1" as="geometry">
                        <mxPoint x="802" y="1041" as="sourcePoint"/>
                        <mxPoint x="782" y="1021" as="targetPoint"/>
                    </mxGeometry>
                </mxCell>
                <mxCell id="51" style="edgeStyle=none;html=1;exitX=0.009;exitY=0.009;exitDx=0;exitDy=0;entryX=0.5;entryY=0;entryDx=0;entryDy=0;fontSize=9;fontColor=#DDDDDD;exitPerimeter=0;" edge="1" parent="1" source="48" target="50">
                    <mxGeometry relative="1" as="geometry"/>
                </mxCell>
                <mxCell id="53" value="child" style="edgeLabel;html=1;align=center;verticalAlign=middle;resizable=0;points=[];fontSize=9;fontColor=#DDDDDD;" vertex="1" connectable="0" parent="51">
                    <mxGeometry x="-0.3584" y="-1" relative="1" as="geometry">
                        <mxPoint as="offset"/>
                    </mxGeometry>
                </mxCell>
                <mxCell id="48" value="fork" style="triangle;whiteSpace=wrap;html=1;fontSize=9;fontColor=#DDDDDD;rotation=-90;" vertex="1" parent="1">
                    <mxGeometry x="710.75" y="1056" width="56.25" height="86.25" as="geometry"/>
                </mxCell>
                <mxCell id="58" style="edgeStyle=none;html=1;exitX=0.5;exitY=1;exitDx=0;exitDy=0;entryX=0.5;entryY=0;entryDx=0;entryDy=0;fontSize=9;fontColor=#DDDDDD;" edge="1" parent="1" source="50" target="57">
                    <mxGeometry relative="1" as="geometry"/>
                </mxCell>
                <mxCell id="50" value="dup_in_out" style="rounded=0;whiteSpace=wrap;html=1;fontSize=9;fontColor=#DDDDDD;" vertex="1" parent="1">
                    <mxGeometry x="627" y="1161" width="80" height="30" as="geometry"/>
                </mxCell>
                <mxCell id="54" value="add wait_pid node" style="rounded=0;whiteSpace=wrap;html=1;fontSize=9;fontColor=#DDDDDD;" vertex="1" parent="1">
                    <mxGeometry x="767" y="1161" width="95" height="30" as="geometry"/>
                </mxCell>
                <mxCell id="56" value="" style="endArrow=classic;html=1;fontSize=9;fontColor=#DDDDDD;exitX=0.005;exitY=0.987;exitDx=0;exitDy=0;exitPerimeter=0;entryX=0.5;entryY=0;entryDx=0;entryDy=0;" edge="1" parent="1" source="48" target="54">
                    <mxGeometry width="50" height="50" relative="1" as="geometry">
                        <mxPoint x="802" y="1171" as="sourcePoint"/>
                        <mxPoint x="852" y="1121" as="targetPoint"/>
                    </mxGeometry>
                </mxCell>
                <mxCell id="57" value="run and close" style="rounded=0;whiteSpace=wrap;html=1;fontSize=9;fontColor=#DDDDDD;" vertex="1" parent="1">
                    <mxGeometry x="629.5" y="1221" width="75" height="30" as="geometry"/>
                </mxCell>
                <mxCell id="63" value="run local" style="rounded=0;whiteSpace=wrap;html=1;fontSize=9;fontColor=#DDDDDD;" vertex="1" parent="1">
                    <mxGeometry x="1150" y="861" width="120" height="60" as="geometry"/>
                </mxCell>
                <mxCell id="64" value="" style="endArrow=classic;html=1;fontSize=9;fontColor=#DDDDDD;exitX=1;exitY=0.5;exitDx=0;exitDy=0;entryX=0;entryY=0.5;entryDx=0;entryDy=0;" edge="1" parent="1" source="27" target="63">
                    <mxGeometry width="50" height="50" relative="1" as="geometry">
                        <mxPoint x="1140" y="950" as="sourcePoint"/>
                        <mxPoint x="1190" y="900" as="targetPoint"/>
                    </mxGeometry>
                </mxCell>
                <mxCell id="65" value="one cmd" style="edgeLabel;html=1;align=center;verticalAlign=middle;resizable=0;points=[];fontSize=9;fontColor=#DDDDDD;" vertex="1" connectable="0" parent="64">
                    <mxGeometry x="0.115" relative="1" as="geometry">
                        <mxPoint x="-9" as="offset"/>
                    </mxGeometry>
                </mxCell>
                <mxCell id="70" style="edgeStyle=none;html=1;entryX=1;entryY=0.5;entryDx=0;entryDy=0;fontSize=9;fontColor=#DDDDDD;" edge="1" parent="1" source="66" target="39">
                    <mxGeometry relative="1" as="geometry"/>
                </mxCell>
                <mxCell id="66" value="change path for build in" style="whiteSpace=wrap;html=1;fontSize=9;fontColor=#DDDDDD;" vertex="1" parent="1">
                    <mxGeometry x="867" y="870" width="78" height="51" as="geometry"/>
                </mxCell>
                <mxCell id="67" value="" style="endArrow=classic;html=1;fontSize=9;fontColor=#DDDDDD;exitX=0.004;exitY=0.561;exitDx=0;exitDy=0;exitPerimeter=0;entryX=1;entryY=0.5;entryDx=0;entryDy=0;" edge="1" parent="1" source="27" target="66">
                    <mxGeometry width="50" height="50" relative="1" as="geometry">
                        <mxPoint x="930" y="890" as="sourcePoint"/>
                        <mxPoint x="980" y="840" as="targetPoint"/>
                    </mxGeometry>
                </mxCell>
            </root>
        </mxGraphModel>
    </diagram>
</mxfile>